<svg version="1.0" xmlns="http://www.w3.org/2000/svg" width="317.333" height="317.333" viewBox="0 0 238 238"><path d="M165 3.2c-2.1 3.4-5.4 13.4-6.5 20l-.7 3.7-18.7-.6c-16.4-.5-54 .9-59.6 2.3-1.7.4-2.6-.8-5.5-7.3C70.3 13.1 64.3 6 61 6c-3.7 0-5.1 4.1-6.1 17.7-.4 7-.8 18.5-.9 25.6V62l-8.4 8.3c-9 8.9-17.7 21.3-22.7 32.3-3.2 7.1-8.4 25.2-7.6 26.1.3.2 5.7.7 12 1l11.5.6 4.3 6c6.4 8.8 20.2 22.2 30.5 29.6 9.7 6.9 30 17.3 37.7 19.3 4.6 1.2 5.1 1.1 10.2-1.7 6.5-3.5 22.1-15 33.4-24.8 12.4-10.6 30.7-31.1 33.9-37.9 2.6-5.5 2.9-5.7 9.2-7.7 3.6-1.1 9.4-2.7 12.9-3.5 3.4-.8 6.5-1.6 6.7-1.8.6-.7-8.5-17.9-12.3-23.1-4.9-6.9-16.7-19.1-22.4-23.3l-4.6-3.3-1.7-16.3c-1.8-16.9-5.2-39.4-6.2-40.9-1.1-1.8-3.5-.8-5.4 2.3zm15.2 110.3c-.4 5-.5 5.1-15.5 20.6-8.4 8.5-20.1 20.7-26.2 27-6 6.3-13.9 13.9-17.4 16.8l-6.4 5.2-3.6-3.4c-2-1.9-7.6-6.3-12.6-9.8-16.8-11.7-28.3-20.8-37.4-29.4l-9-8.6.6-7.2c.3-4 .6-7.3.7-7.4.3-.3 31.8-4.2 43.1-5.2 21.3-2 61.5-3.8 79-3.7l5 .1-.3 5z"/><path d="M114.2 116.6c-3.3 2.3-2.8 5.8 1.3 8.9 4 3.1 6.3 2.8 10-1.6 4.5-5.5 2.8-8.9-4.5-8.9-2.5 0-5.6.7-6.8 1.6zm18.3 17.4c-2.3 3.5-6.9 6-9.7 5.2-1-.2-2.6-1.6-3.5-2.9l-1.6-2.4-3.1 3c-1.7 1.6-4.3 3.3-5.7 3.6-3.2.8-9.4-1.7-13.1-5.2-1.5-1.5-3.1-2.4-3.4-2-1.2 1.2 1.9 12.8 5.1 19.6 4.4 9 8 12.3 14.5 12.9 4.3.4 5.5.1 7.5-1.8 1.3-1.2 2.6-3.4 3-4.9.5-2.4-.6-10.7-2-15.7-.6-1.8-.3-2 2.3-1.6 1.6.2 4.3-.3 6-1.2 3.1-1.6 7.2-6.5 7.2-8.5s-1.5-1.2-3.5 1.9zm77.1.2c-15.3 10.7-25.5 19.4-29.4 25.4l-3.2 4.7v34.4c0 27.3.3 34.3 1.3 33.7.6-.4 4.1-3.1 7.7-6 25.7-20.8 40.7-57.5 37-90.5-.6-5.1-1.2-9.4-1.4-9.6-.1-.2-5.5 3.4-12 7.9zM14 153.4c0 5.7 3 19.5 6 27.9 7.8 21.4 22.3 39.8 40.9 51.9 4.1 2.7 7.5 4.7 7.6 4.6.4-.4-14.1-74.7-14.6-75.2-.8-.7-27-9.8-32.1-11.2-7.5-2-7.8-1.9-7.8 2z"/></svg>