<?xml version="1.0" standalone="no"?>
<!DOCTYPE svg PUBLIC "-//W3C//DTD SVG 20010904//EN"
"http://www.w3.org/TR/2001/REC-SVG-20010904/DTD/svg10.dtd">
<svg version="1.0" xmlns="http://www.w3.org/2000/svg"
width="238.000000pt" height="238.000000pt" viewBox="0 0 238.000000 238.000000"
preserveAspectRatio="xMidYMid meet">
<metadata>
Created by potrace 1.11, written by Peter Selinger 2001-2013
</metadata>
<g transform="translate(0.000000,238.000000) scale(0.100000,-0.100000)"
fill="#000000" stroke="none">
<path d="M1650 2348 c-21 -34 -54 -134 -65 -200 l-7 -37 -187 6 c-164 5 -540
-9 -596 -23 -17 -4 -26 8 -55 73 -37 82 -97 153 -130 153 -37 0 -51 -41 -61
-177 -4 -70 -8 -185 -9 -256 l0 -127 -84 -83 c-90 -89 -177 -213 -227 -323
-32 -71 -84 -252 -76 -261 3 -2 57 -7 120 -10 l115 -6 43 -60 c64 -88 202
-222 305 -296 97 -69 300 -173 377 -193 46 -12 51 -11 102 17 65 35 221 150
334 248 124 106 307 311 339 379 26 55 29 57 92 77 36 11 94 27 129 35 34 8
65 16 67 18 6 7 -85 179 -123 231 -49 69 -167 191 -224 233 l-46 33 -17 163
c-18 169 -52 394 -62 409 -11 18 -35 8 -54 -23z m152 -1103 c-4 -50 -5 -51
-155 -206 -84 -85 -201 -207 -262 -270 -60 -63 -139 -139 -174 -168 l-64 -52
-36 34 c-20 19 -76 63 -126 98 -168 117 -283 208 -374 294 l-90 86 6 72 c3 40
6 73 7 74 3 3 318 42 431 52 213 20 615 38 790 37 l50 -1 -3 -50z"/>
<path d="M1142 1214 c-33 -23 -28 -58 13 -89 40 -31 63 -28 100 16 45 55 28
89 -45 89 -25 0 -56 -7 -68 -16z"/>
<path d="M1325 1040 c-23 -35 -69 -60 -97 -52 -10 2 -26 16 -35 29 l-16 24
-31 -30 c-17 -16 -43 -33 -57 -36 -32 -8 -94 17 -131 52 -15 15 -31 24 -34 20
-12 -12 19 -128 51 -196 44 -90 80 -123 145 -129 43 -4 55 -1 75 18 13 12 26
34 30 49 5 24 -6 107 -20 157 -6 18 -3 20 23 16 16 -2 43 3 60 12 31 16 72 65
72 85 0 20 -15 12 -35 -19z"/>
<path d="M2096 1038 c-153 -107 -255 -194 -294 -254 l-32 -47 0 -344 c0 -273
3 -343 13 -337 6 4 41 31 77 60 257 208 407 575 370 905 -6 51 -12 94 -14 96
-1 2 -55 -34 -120 -79z"/>
<path d="M140 846 c0 -57 30 -195 60 -279 78 -214 223 -398 409 -519 41 -27
75 -47 76 -46 4 4 -141 747 -146 752 -8 7 -270 98 -321 112 -75 20 -78 19 -78
-20z"/>
</g>
</svg>
