<svg xmlns="http://www.w3.org/2000/svg">
    <symbol fill="none" xmlns="http://www.w3.org/2000/svg" viewBox="0 0 25 28" id="icon_leaf">
        <path d="M24.844.767c-.1-.45-.48-.767-.912-.767h-.005C18.989.033 6.982.916 2.134 8.38c-2.518 3.878-2.735 8.913-.644 14.965.016.047.048.079.07.122C.813 25.44.523 26.753.516 26.79c-.11.54.214 1.072.72 1.188a.88.88 0 00.197.022c.433 0 .822-.321.916-.79.02-.102 2.409-10.373 10.854-16.378.431-.306.547-.927.26-1.387-.288-.46-.87-.585-1.3-.277-4.79 3.405-7.739 8.008-9.473 11.656-1.242-4.578-.916-8.377.986-11.305 3.743-5.764 12.622-7.154 17.982-7.448C20.505 3.872 19.245 7.174 19.245 13c0 3.12-.83 5.522-2.465 7.14-2.62 2.591-6.88 2.834-9.993 2.584-.518-.045-.967.371-1.006.922-.04.55.347 1.03.863 1.072.623.051 1.29.082 1.981.082 3.17 0 6.87-.663 9.43-3.194 2.034-2.011 3.065-4.906 3.065-8.605 0-9.099 3.216-11.096 3.232-11.105.39-.209.594-.677.492-1.129z" fill="#fff"></path>
    </symbol>

    <symbol fill="none" xmlns="http://www.w3.org/2000/svg" viewBox="0 0 29 31" id="icon_tub">
    <g clip-path="url(#clip0)" fill="#fff">
      <path d="M20.776 18.473c-1.706 0-3.088 1.479-3.088 3.301 0 1.824 1.383 3.302 3.088 3.302 1.706 0 3.088-1.478 3.088-3.302 0-1.823-1.383-3.3-3.088-3.3zm0 5.013c-.884 0-1.6-.766-1.6-1.71 0-.947.716-1.713 1.6-1.713.884 0 1.602.766 1.602 1.712 0 .945-.718 1.711-1.602 1.711zM11.607-.01c-1.76 0-3.187 1.525-3.187 3.407 0 1.882 1.426 3.407 3.187 3.407 1.76 0 3.187-1.524 3.187-3.407S13.367-.01 11.607-.01zm0 5.476c-1.07 0-1.936-.926-1.936-2.07 0-1.142.866-2.069 1.935-2.069 1.07 0 1.936.927 1.936 2.07 0 1.143-.866 2.069-1.936 2.069zM8.227 17.61c-1.294 0-2.341 1.12-2.341 2.503s1.047 2.503 2.34 2.503c1.295 0 2.342-1.12 2.342-2.503 0-1.382-1.047-2.503-2.341-2.503zM8 19.5c-.459 0 1.158 1.104 1.158.613 0-.49-1.617.387-1.158.387.459 0 1.057-.877 1.057-.388 0 .49-.598-.612-1.057-.612zm10.5-9.737s3.04-.839 6.178 1.494c.907.76 1.765 1.336 1.152 2.122-.343.34-.637.657-1.716-.524-1.054-.76-2.72-1.898-5.614-1.442-1.128.237-1.961.551-3.556 2.15-1.593 1.598-3.972 2.725-6.497 2.489-2.525-.236-3.849-1.258-5.246-2.542-.294-.42-.294-.865-.123-1.127.171-.262.833-.524 1.201-.132.368.394 2.109 1.966 3.825 2.07 1.716.105 3.433.21 5.737-1.965 2.306-2.174 3.458-2.331 4.66-2.593z"></path>
      <mask id="a">
        <path d="M28.646 26.816V8.157c0-.578-.374-.65-.524-.655h-.506c-.493 0-.536.557-.538.739V8.3c.002 3.609.01 18.254-.002 18.54a2.681 2.681 0 01-.82 1.887c-.809.695-1.618.603-1.618.603s-20.177 0-20.655-.026c-.38-.066-1.042-.21-1.606-1.01-.564-.798-.453-1.847-.453-1.847V8.315c0-.839-.675-.812-.675-.812H.942c-.536 0-.585.588-.588.776v18.537c0 1.337.453 2.398 1.548 3.337 1.094.939 2.375.856 2.375.856s19.723 0 20.581-.002c.859-.003 1.986-.417 2.916-1.556.93-1.138.872-2.635.872-2.635z"></path>
      </mask>
      <path d="M28.646 26.816V8.157c0-.578-.374-.65-.524-.655h-.506c-.493 0-.536.557-.538.739V8.3c.002 3.609.01 18.254-.002 18.54a2.681 2.681 0 01-.82 1.887c-.809.695-1.618.603-1.618.603s-20.177 0-20.655-.026c-.38-.066-1.042-.21-1.606-1.01-.564-.798-.453-1.847-.453-1.847V8.315c0-.839-.675-.812-.675-.812H.942c-.536 0-.585.588-.588.776v18.537c0 1.337.453 2.398 1.548 3.337 1.094.939 2.375.856 2.375.856s19.723 0 20.581-.002c.859-.003 1.986-.417 2.916-1.556.93-1.138.872-2.635.872-2.635z"></path>
    </g>
    <defs>
      <clipPath id="clip0">
        <path fill="#fff" d="M0 0h29v31H0z"></path>
      </clipPath>
    </defs>
    </symbol>

    <symbol fill="none" xmlns="http://www.w3.org/2000/svg" viewBox="0 0 25 30" id="icon_alarm">
    <ellipse cx="18.204" cy="9.33" rx="1.087" ry="1.085" fill="#fff"></ellipse>
    <ellipse cx="7.331" cy="9.33" rx="1.087" ry="1.085" fill="#fff"></ellipse>
    <ellipse cx="7.331" cy="22.351" rx="1.087" ry="1.085" fill="#fff"></ellipse>
    <ellipse cx="12.768" cy="24.521" rx="1.087" ry="1.085" fill="#fff"></ellipse>
    <ellipse cx="4.069" cy="15.775" rx="1.087" ry="1.085" fill="#fff"></ellipse>
    <ellipse cx="21.466" cy="15.775" rx="1.087" ry="1.085" fill="#fff"></ellipse>
    <ellipse cx="18.204" cy="22.351" rx="1.087" ry="1.085" fill="#fff"></ellipse>
    <mask id="a" fill="#fff">
      <path fill-rule="evenodd" clip-rule="evenodd" d="M17.922 27.058a1.058 1.058 0 011.216.196l1.826 1.875a.682.682 0 00.977-.95l-1.357-1.394c-.426-.438-.361-1.15.098-1.552C23.324 22.92 25 19.47 25 15.614 25 8.648 19.523 3 12.768 3 6.012 3 .536 8.648.536 15.614c0 3.815 1.641 7.234 4.236 9.547.452.403.513 1.11.09 1.544l-1.434 1.473a.682.682 0 10.976.951l1.88-1.93a1.058 1.058 0 011.226-.191 11.878 11.878 0 005.258 1.221c1.841 0 3.587-.42 5.154-1.17zm-5.154-.23c6.005 0 10.873-5.02 10.873-11.213S18.773 4.402 12.768 4.402c-6.005 0-10.873 5.02-10.873 11.212 0 6.193 4.868 11.213 10.873 11.213zm-.76-11.53V7.94a.781.781 0 111.563 0v8.183c0 .443-.36.803-.803.803a.76.76 0 01-.76-.76v-.868z"></path>
    </mask>
    <path fill-rule="evenodd" clip-rule="evenodd" d="M17.922 27.058a1.058 1.058 0 011.216.196l1.826 1.875a.682.682 0 00.977-.95l-1.357-1.394c-.426-.438-.361-1.15.098-1.552C23.324 22.92 25 19.47 25 15.614 25 8.648 19.523 3 12.768 3 6.012 3 .536 8.648.536 15.614c0 3.815 1.641 7.234 4.236 9.547.452.403.513 1.11.09 1.544l-1.434 1.473a.682.682 0 10.976.951l1.88-1.93a1.058 1.058 0 011.226-.191 11.878 11.878 0 005.258 1.221c1.841 0 3.587-.42 5.154-1.17zm-5.154-.23c6.005 0 10.873-5.02 10.873-11.213S18.773 4.402 12.768 4.402c-6.005 0-10.873 5.02-10.873 11.212 0 6.193 4.868 11.213 10.873 11.213zm-.76-11.53V7.94a.781.781 0 111.563 0v8.183c0 .443-.36.803-.803.803a.76.76 0 01-.76-.76v-.868z" fill="#fff"></path>
    
    <path fill="#fff" d="M12 4V0h1.5v4z"></path>
    <rect x="5" width="15.5" height="1.5" rx=".75" fill="#fff"></rect>
    </symbol>

    <symbol fill="none" xmlns="http://www.w3.org/2000/svg" viewBox="0 0 25 30" id="icon_eat">
    <path fill-rule="evenodd" clip-rule="evenodd" d="M18.617.076a1 1 0 011.09.217c.909.908 2.097 2.878 3.059 5.918C23.737 9.28 24.5 13.508 24.5 19a1 1 0 01-1 1H20v9a1 1 0 11-2 0V1a1 1 0 01.617-.924zM20 18h2.491c-.086-4.816-.786-8.512-1.632-11.186A22.11 22.11 0 0020 4.519V18zM6 0a1 1 0 011 1v28a1 1 0 11-2 0V1a1 1 0 011-1z" fill="#fff"></path>
    <path fill-rule="evenodd" clip-rule="evenodd" d="M1.5 0a1 1 0 011 1v5.5c0 .557.192 1.315.7 1.917C3.68 8.983 4.515 9.5 6 9.5a1 1 0 110 2c-2.015 0-3.43-.733-4.326-1.792A5.068 5.068 0 01.5 6.5V1a1 1 0 011-1z" fill="#fff"></path>
    <path fill-rule="evenodd" clip-rule="evenodd" d="M10.5 0a1 1 0 00-1 1v5.5a3.07 3.07 0 01-.7 1.917C8.32 8.983 7.484 9.5 6 9.5a1 1 0 000 2c2.014 0 3.43-.733 4.326-1.792A5.068 5.068 0 0011.5 6.5V1a1 1 0 00-1-1z" fill="#fff"></path>
    </symbol>
</svg>
